<svg width="154" height="154" viewBox="0 0 154 154" fill="none" xmlns="http://www.w3.org/2000/svg">
<g filter="url(#filter0_d_562_26)">
<path d="M101.78 63.5029C106.306 58.9334 107.438 52.6418 104.304 49.4776C101.17 46.3134 94.9383 47.4566 90.4125 52.0261C86.1316 56.3482 84.8892 62.2096 87.4194 65.5092L81.512 71.4735L80.3165 70.2664L52.0842 98.7709L55.4808 102.2L83.7132 73.6956L82.5178 72.4887L88.4251 66.5244C91.6934 69.0791 97.4988 67.825 101.78 63.5029ZM81.6176 73.7812L55.5657 100.084L54.1804 98.6856L80.2323 72.3826L81.6176 73.7812ZM88.9784 64.9506C86.3991 62.3465 87.4938 57.004 91.4185 53.0415C95.3431 49.079 100.635 47.9737 103.214 50.5779C105.793 53.1822 104.699 58.5248 100.774 62.4873C96.8494 66.4498 91.5578 67.5549 88.9784 64.9506Z" fill="white"/>
<path d="M64.0731 52.0219C59.5536 47.4461 53.3307 46.3015 50.2011 49.4701C47.0714 52.6386 48.2021 58.9387 52.7217 63.5145C56.9966 67.8426 62.794 69.0987 66.0576 66.5405L71.9567 72.513L70.7628 73.7218L98.9559 102.265L102.348 98.8313L74.1545 70.2876L72.9608 71.4962L67.0616 65.5237C69.5885 62.2194 68.3481 56.35 64.0731 52.0219ZM74.2392 72.4063L100.255 98.7455L98.8715 100.146L72.8558 73.8069L74.2392 72.4063ZM65.5051 64.9643C62.9293 67.5721 57.6452 66.4653 53.726 62.4974C49.8068 58.5294 48.7136 53.1796 51.2893 50.5719C53.8652 47.964 59.1494 49.0706 63.0686 53.0386C66.9878 57.0065 68.0809 62.3565 65.5051 64.9643Z" fill="white"/>
<path d="M76.1032 12.1221C75.7454 12.1221 75.3429 12.1029 74.8957 12.0645C74.7168 12.0517 74.4995 12.0389 74.244 12.0261C73.9884 12.0132 73.7009 12.0068 73.3814 12.0068L71.963 12.0261C71.733 12.0389 71.4072 12.0453 70.9855 12.0453C70.9599 12.0453 70.9471 12.0068 70.9471 11.93C70.9471 11.8532 70.9599 11.8147 70.9855 11.8147C71.3816 11.8147 71.6691 11.7827 71.848 11.7187C72.0269 11.6546 72.1483 11.533 72.2122 11.3537C72.2889 11.1616 72.3208 10.8734 72.308 10.4892V1.59451C72.2825 1.21029 72.2314 0.92853 72.1547 0.749228C72.0908 0.569925 71.9694 0.448255 71.7905 0.384219C71.6116 0.307375 71.3433 0.268953 70.9855 0.268953C70.9599 0.268953 70.9471 0.230531 70.9471 0.153688C70.9471 0.0768443 70.9599 0.0384225 70.9855 0.0384225L71.963 0.0576333C72.5253 0.0832475 72.9853 0.0960547 73.3431 0.0960547C73.7648 0.0960547 74.1865 0.076844 74.6081 0.0384225C75.1448 0.0128075 75.541 0 75.7965 0C77.1383 0 78.3267 0.249743 79.3617 0.749228C80.3967 1.2359 81.2018 1.9211 81.7768 2.8048C82.3518 3.6885 82.6394 4.70028 82.6394 5.84013C82.6394 7.06963 82.3327 8.16465 81.7193 9.1252C81.1187 10.0729 80.3201 10.8094 79.3234 11.3345C78.3267 11.8596 77.2533 12.1221 76.1032 12.1221ZM75.9307 11.7379C76.8252 11.7379 77.6047 11.5266 78.2691 11.1039C78.9336 10.6685 79.4448 10.0409 79.8026 9.22126C80.1731 8.40159 80.3584 7.41543 80.3584 6.26277C80.3584 5.27661 80.1987 4.34167 79.8792 3.45797C79.5598 2.56146 79.0486 1.82504 78.3458 1.24871C77.6558 0.672383 76.7741 0.384219 75.7007 0.384219C75.1896 0.384219 74.8445 0.480274 74.6656 0.672384C74.4868 0.851686 74.3973 1.17187 74.3973 1.63293V10.2779C74.4101 10.803 74.5187 11.1808 74.7232 11.4113C74.9404 11.629 75.3429 11.7379 75.9307 11.7379Z" fill="#DCCA87"/>
<path d="M99.0939 12.861C99.1256 12.8437 99.1599 12.8404 99.1966 12.8512C99.2334 12.8621 99.2666 12.8852 99.2962 12.9206C99.3294 12.9437 99.338 12.9596 99.3222 12.9683C98.9656 13.7309 98.6487 14.5854 98.3714 15.5316C98.3426 15.6299 98.3027 15.6982 98.2515 15.7366C98.2039 15.7626 98.1249 15.7594 98.0146 15.7269L89.6282 13.2589C89.5792 13.2444 89.5655 13.2004 89.5871 13.1266C89.6087 13.0529 89.6378 13.0214 89.6746 13.0323C90.0425 13.1405 90.3151 13.1874 90.4924 13.1728C90.6821 13.1619 90.8266 13.0776 90.9261 12.92C91.0378 12.766 91.1495 12.4986 91.2611 12.1176L93.7613 3.58325C93.8693 3.2146 93.9179 2.93523 93.907 2.74515C93.8961 2.55507 93.8138 2.40405 93.6601 2.29209C93.5101 2.16784 93.2634 2.0552 92.9201 1.95417C92.8833 1.94335 92.8696 1.89927 92.8789 1.82193C92.9005 1.7482 92.9236 1.71494 92.9481 1.72216L100.875 4.05488C100.973 4.08375 101.006 4.15348 100.973 4.26407L100.297 6.70802C100.286 6.74489 100.244 6.7525 100.171 6.73085C100.109 6.71281 100.076 6.68969 100.071 6.66151C100.064 5.91201 99.8426 5.25946 99.4061 4.70386C98.9854 4.13957 98.4011 3.74738 97.6532 3.52728L97.3038 3.42445C96.9237 3.31259 96.6388 3.26213 96.4492 3.27305C96.2754 3.2753 96.1424 3.34294 96.0501 3.47597C95.9579 3.609 95.8552 3.84575 95.7422 4.18622L94.6405 7.9465L96.9394 8.62305C97.5647 8.80707 98.0569 8.83178 98.416 8.69718C98.775 8.56259 99.0265 8.24952 99.1706 7.75798C99.185 7.70882 99.2351 7.69688 99.3209 7.72213C99.4067 7.74739 99.4406 7.79074 99.4226 7.85218L99.1072 8.86057C99.0518 9.00443 98.9844 9.21153 98.9052 9.48188C98.79 9.87511 98.7098 10.1718 98.6644 10.3721L98.3912 11.3728C98.3732 11.4343 98.3274 11.4542 98.2539 11.4325C98.2171 11.4217 98.1821 11.4047 98.1489 11.3816C98.1316 11.3498 98.1265 11.3216 98.1337 11.2971C98.2885 10.7687 98.24 10.3206 97.9882 9.95281C97.7522 9.57636 97.3399 9.30153 96.7514 9.12834L94.4893 8.46262L93.2689 12.6284C93.1249 13.12 93.1049 13.4611 93.2088 13.6519C93.325 13.8462 93.6283 14.0156 94.1187 14.1599L94.6337 14.3115C95.4306 14.546 96.2267 14.5334 97.022 14.2735C97.8209 14.0014 98.5115 13.5306 99.0939 12.861Z" fill="#DCCA87"/>
<path d="M106.323 19.5827C106.301 19.5689 106.311 19.5296 106.352 19.465C106.394 19.4003 106.425 19.3749 106.447 19.3888C106.78 19.6034 107.039 19.7323 107.224 19.7754C107.409 19.8184 107.572 19.7784 107.711 19.6552C107.862 19.539 108.044 19.3139 108.258 18.9799L113.056 11.4972C113.264 11.174 113.389 10.9197 113.432 10.7342C113.475 10.5488 113.438 10.3806 113.322 10.2298C113.213 10.0682 113.008 9.89051 112.707 9.69663C112.675 9.67586 112.68 9.63315 112.721 9.5685C112.762 9.50386 112.799 9.48192 112.832 9.50269L113.595 10.0174C114.054 10.3436 114.429 10.6002 114.719 10.7871C115.01 10.9741 115.409 11.216 115.917 11.513L116.75 12.0265C116.771 12.0404 116.761 12.0796 116.72 12.1443C116.678 12.2089 116.647 12.2343 116.625 12.2205C116.292 12.0058 116.03 11.8824 115.838 11.8501C115.663 11.8139 115.501 11.854 115.351 11.9702C115.211 12.0933 115.029 12.3184 114.804 12.6455L110.057 20.0474C109.788 20.4676 109.668 20.7858 109.696 21.002C109.731 21.2075 109.916 21.4175 110.249 21.6322L110.7 21.923C111.571 22.4838 112.421 22.7573 113.25 22.7433C114.097 22.7255 114.964 22.416 115.851 21.8149C115.886 21.8072 115.92 21.8138 115.952 21.8345C115.984 21.8553 116.01 21.8868 116.028 21.9292C116.053 21.9607 116.059 21.9873 116.045 22.0088C115.393 22.8369 114.821 23.6334 114.331 24.3984C114.227 24.56 114.095 24.5889 113.933 24.485L106.323 19.5827Z" fill="#DCCA87"/>
<path d="M121.46 31.6165C121.443 31.5972 121.464 31.5623 121.522 31.512C121.579 31.4617 121.617 31.4462 121.634 31.4656C121.893 31.7656 122.101 31.9576 122.258 32.0415C122.424 32.1351 122.595 32.1473 122.772 32.0783C122.949 32.0093 123.187 31.8448 123.487 31.5848L130.194 25.76C130.474 25.5168 130.656 25.3074 130.741 25.1319C130.844 24.9577 130.861 24.7819 130.792 24.6045C130.733 24.4187 130.582 24.1854 130.34 23.9047C130.323 23.8853 130.339 23.8457 130.389 23.7857C130.447 23.7353 130.488 23.7247 130.513 23.7537L131.127 24.4922C131.475 24.9349 131.763 25.2869 131.989 25.5482C132.24 25.8386 132.567 26.198 132.972 26.6265L133.601 27.3253C133.618 27.3447 133.597 27.3795 133.539 27.4298C133.481 27.4802 133.444 27.4956 133.427 27.4763C133.176 27.1859 132.963 26.9981 132.788 26.9129C132.613 26.8278 132.437 26.8197 132.26 26.8887C132.091 26.9674 131.853 27.1319 131.545 27.3822L124.867 33.1818C124.578 33.4335 124.386 33.6422 124.293 33.808C124.208 33.9835 124.195 34.1641 124.254 34.35C124.323 34.5274 124.479 34.7565 124.721 35.0372C124.738 35.0565 124.718 35.0914 124.66 35.1417C124.602 35.192 124.564 35.2075 124.548 35.1881C124.288 34.8881 124.084 34.6419 123.934 34.4496L123.033 33.3772L122.127 32.3589C121.958 32.1834 121.736 31.936 121.46 31.6165Z" fill="#DCCA87"/>
<path d="M132.319 48.7326C131.73 47.4395 131.467 46.2008 131.532 45.0168C131.602 43.8444 131.959 42.8082 132.602 41.9082C133.257 41.0029 134.131 40.3002 135.224 39.8001C136.281 39.3159 137.356 39.1619 138.448 39.3381C139.551 39.5089 140.556 39.9713 141.461 40.7255C142.378 41.4743 143.108 42.4428 143.649 43.6311C143.899 44.1787 144.101 44.7618 144.257 45.3805C144.424 45.9939 144.512 46.4957 144.521 46.8857C144.517 47.0002 144.497 47.0797 144.461 47.1243C144.425 47.1689 144.346 47.2263 144.223 47.2964L142.003 48.4817C141.957 48.503 141.914 48.4871 141.876 48.4342C141.838 48.3813 141.831 48.3352 141.855 48.2959C142.553 47.4838 142.994 46.634 143.18 45.7465C143.377 44.8537 143.277 43.9704 142.879 43.0967C142.364 41.9666 141.562 41.2706 140.473 41.0086C139.396 40.7413 138.172 40.9216 136.8 41.5494C135.603 42.0974 134.641 42.7912 133.914 43.6309C133.187 44.4706 132.738 45.366 132.567 46.3171C132.402 47.2798 132.529 48.2213 132.948 49.1417C133.139 49.5611 133.343 49.8548 133.56 50.023C133.789 50.1858 134.061 50.2442 134.378 50.198C134.711 50.1582 135.15 50.0133 135.697 49.7632C136.266 49.5025 136.655 49.2612 136.863 49.0393C137.071 48.8174 137.152 48.5481 137.106 48.2312C137.06 47.9144 136.896 47.4472 136.615 46.8298C136.583 46.7599 136.613 46.7037 136.706 46.6611C136.741 46.6451 136.773 46.6377 136.801 46.6387C136.847 46.646 136.875 46.6613 136.886 46.6846C137.268 47.6782 137.605 48.4953 137.897 49.1361C138.173 49.7419 138.477 50.363 138.81 50.9994C138.831 51.046 138.803 51.0938 138.727 51.1427C138.651 51.1915 138.603 51.1927 138.581 51.1461C138.508 50.9544 138.408 50.8592 138.283 50.8604C138.157 50.8617 137.908 50.9475 137.536 51.1177L136.35 51.6604C135.827 51.8998 135.469 52.0849 135.276 52.2156C135.082 52.3463 134.945 52.4303 134.864 52.4676C134.794 52.4995 134.742 52.5091 134.708 52.4964C134.68 52.4954 134.638 52.4653 134.583 52.406C133.578 51.0638 132.823 49.8393 132.319 48.7326Z" fill="#DCCA87"/>
<path d="M138.145 70.8505C138.148 70.8759 138.112 70.894 138.036 70.9049C137.96 70.9159 137.92 70.9087 137.917 70.8833C137.866 70.5284 137.83 70.2359 137.81 70.0059L137.625 68.577L137.409 67.2106C137.362 66.9716 137.309 66.6429 137.249 66.2245C137.245 66.1992 137.28 66.1747 137.354 66.1511C137.43 66.1402 137.471 66.1537 137.476 66.1917C137.533 66.5847 137.604 66.8591 137.691 67.0147C137.78 67.1831 137.916 67.2799 138.101 67.3051C138.285 67.3303 138.573 67.3146 138.965 67.2581L143.329 66.6293L142.543 61.1528L138.18 61.7817C137.8 61.8363 137.527 61.9081 137.359 61.997C137.192 62.0986 137.084 62.2436 137.034 62.432C136.996 62.6186 137.004 62.9021 137.059 63.2824C137.064 63.3204 137.029 63.3449 136.953 63.3558C136.877 63.3668 136.837 63.3532 136.831 63.3152C136.771 62.8968 136.731 62.5727 136.711 62.3427L136.528 60.9328L136.321 59.6235C136.274 59.3844 136.222 59.0684 136.166 58.6754C136.16 58.6374 136.195 58.6129 136.271 58.602C136.347 58.591 136.388 58.6046 136.393 58.6426C136.448 59.0229 136.519 59.2909 136.605 59.4466C136.694 59.615 136.831 59.7117 137.015 59.7369C137.201 59.7748 137.49 59.7655 137.882 59.709L146.667 58.4431C147.2 58.3793 147.537 58.2531 147.677 58.0646C147.831 57.8743 147.87 57.5192 147.796 56.9995C147.79 56.9614 147.825 56.937 147.901 56.926C147.977 56.9151 148.018 56.9286 148.023 56.9667L148.135 57.8821C148.19 58.4436 148.242 58.8954 148.291 59.2377C148.34 59.58 148.419 60.0409 148.528 60.6204L148.686 61.5874C148.69 61.6128 148.654 61.6309 148.578 61.6418C148.502 61.6528 148.462 61.6456 148.459 61.6202C148.404 61.2399 148.326 60.9665 148.225 60.7999C148.123 60.6334 147.973 60.5321 147.774 60.4961C147.59 60.4709 147.307 60.4793 146.926 60.5213L143.075 61.0763L143.858 66.5337L147.709 65.9787C148.253 65.9003 148.601 65.766 148.755 65.5757C148.91 65.398 148.95 65.0493 148.876 64.5296C148.872 64.5042 148.908 64.4797 148.982 64.4561C149.057 64.4452 149.098 64.4587 149.104 64.4968L149.218 65.4313C149.273 65.9927 149.326 66.4509 149.377 66.8058C149.426 67.1481 149.503 67.5963 149.608 68.1505L149.766 69.1175C149.772 69.1555 149.737 69.18 149.661 69.191C149.585 69.2019 149.544 69.1884 149.539 69.1503C149.484 68.77 149.406 68.4966 149.305 68.3301C149.218 68.1744 149.082 68.0776 148.895 68.0397C148.709 68.0019 148.425 67.9976 148.041 68.0269L139.257 69.2928C138.89 69.3456 138.618 69.4237 138.439 69.5271C138.274 69.6414 138.168 69.7991 138.119 70.0002C138.083 70.1994 138.092 70.4829 138.145 70.8505Z" fill="#DCCA87"/>
<path d="M137.368 78.961C137.374 78.923 137.414 78.9094 137.49 78.9203C137.566 78.9313 137.602 78.9494 137.599 78.9748C137.522 79.5072 137.499 79.8984 137.527 80.1484C137.554 80.411 137.65 80.5995 137.814 80.7138C137.991 80.8298 138.269 80.9152 138.649 80.9699L147.433 82.2357C147.874 82.3122 148.173 82.2971 148.33 82.1904C148.5 82.0855 148.611 81.8555 148.662 81.5006L148.697 81.2534C148.759 80.8224 148.681 80.3776 148.462 79.9192C148.257 79.4626 147.947 79.0557 147.534 78.6985C147.133 78.3431 146.671 78.0955 146.149 77.9555C146.124 77.9519 146.116 77.9184 146.125 77.855C146.13 77.817 146.142 77.7799 146.16 77.7436C146.189 77.7219 146.209 77.7183 146.22 77.7328C146.691 77.8655 147.936 78.1419 149.954 78.5621C149.992 78.5676 150.007 78.602 149.998 78.6654C149.992 78.7034 149.981 78.7342 149.965 78.7578C149.947 78.794 149.925 78.8102 149.9 78.8066C149.634 78.7683 149.461 79.0344 149.379 79.6049C149.194 80.6262 148.99 81.9102 148.768 83.4568C148.668 84.154 148.569 84.9355 148.471 85.8012L148.299 87.135C148.239 87.5533 148.227 87.8621 148.263 88.0614C148.299 88.2607 148.408 88.3993 148.59 88.4774C148.625 88.5082 148.631 88.5544 148.609 88.6159C148.598 88.692 148.568 88.72 148.52 88.7001C147.968 88.5818 147.272 88.4427 146.43 88.2825C145.601 88.1242 145.04 88.0304 144.747 88.0012C144.709 87.9957 144.695 87.9549 144.706 87.8789C144.721 87.7774 144.753 87.7304 144.804 87.7377C145.323 87.8124 145.821 87.7612 146.298 87.5842C146.773 87.4198 147.174 87.1475 147.499 86.7675C147.823 86.4001 148.02 85.9755 148.089 85.4938L148.124 85.2466C148.161 84.9931 148.155 84.8047 148.108 84.6815C148.06 84.571 147.961 84.4921 147.813 84.4449C147.678 84.3995 147.44 84.3458 147.1 84.2839L138.351 83.0426C137.959 82.9861 137.669 82.9831 137.481 83.0336C137.291 83.0969 137.148 83.2443 137.05 83.4761C136.952 83.7078 136.864 84.0963 136.786 84.6414C136.78 84.6794 136.74 84.6929 136.664 84.682C136.588 84.6711 136.553 84.6466 136.558 84.6086C136.625 84.1395 136.685 83.7728 136.735 83.5084L137.003 81.7807L137.218 80.1427C137.246 79.862 137.296 79.4681 137.368 78.961Z" fill="#DCCA87"/>
<path d="M124.009 111.475C124.026 111.456 124.064 111.471 124.121 111.522C124.179 111.572 124.2 111.607 124.183 111.626C123.924 111.926 123.764 112.16 123.703 112.328C123.635 112.505 123.647 112.677 123.74 112.843C123.834 113.009 124.03 113.222 124.329 113.482L131.036 119.306C131.316 119.55 131.549 119.701 131.734 119.76C131.921 119.838 132.097 119.83 132.263 119.736C132.438 119.651 132.647 119.468 132.889 119.187C132.906 119.168 132.948 119.178 133.014 119.219C133.072 119.269 133.088 119.309 133.063 119.338L132.421 120.052C132.034 120.461 131.727 120.796 131.501 121.057C131.25 121.348 130.941 121.724 130.576 122.186L129.975 122.91C129.959 122.929 129.921 122.914 129.863 122.863C129.805 122.813 129.785 122.778 129.801 122.759C130.053 122.468 130.208 122.23 130.267 122.044C130.326 121.859 130.309 121.683 130.216 121.517C130.114 121.361 129.918 121.148 129.627 120.878L122.949 115.079C122.659 114.827 122.425 114.667 122.248 114.598C122.063 114.538 121.883 114.551 121.708 114.637C121.542 114.73 121.338 114.917 121.095 115.198C121.079 115.217 121.041 115.202 120.983 115.151C120.926 115.101 120.905 115.066 120.922 115.047C121.181 114.747 121.395 114.509 121.564 114.334L122.495 113.286L123.371 112.243C123.521 112.051 123.733 111.795 124.009 111.475Z" fill="#DCCA87"/>
<path d="M110.302 138.166C110.269 138.187 110.233 138.165 110.191 138.101C110.15 138.036 110.145 137.993 110.177 137.972C110.618 137.689 110.881 137.306 110.967 136.824C111.043 136.349 110.92 135.85 110.599 135.326L105.268 126.976C105.237 126.951 105.246 126.906 105.297 126.843C105.33 126.776 105.384 126.719 105.459 126.67C105.567 126.601 105.657 126.588 105.731 126.632L117.938 130.781L113.799 124.29C113.478 123.766 113.086 123.44 112.624 123.311C112.162 123.183 111.705 123.264 111.254 123.555C111.211 123.582 111.169 123.564 111.127 123.499C111.086 123.434 111.086 123.388 111.129 123.361C111.43 123.167 111.665 123.023 111.833 122.93L112.859 122.292L113.816 121.653C113.992 121.524 114.247 121.353 114.58 121.138C114.623 121.11 114.665 121.129 114.707 121.193C114.748 121.258 114.747 121.304 114.704 121.332C114.253 121.623 113.995 122.002 113.93 122.47C113.855 122.945 113.978 123.444 114.299 123.968L118.832 131.073C119.365 131.217 119.8 131.28 120.137 131.261C120.463 131.248 120.755 131.159 121.013 130.993C121.035 130.979 121.066 131.004 121.108 131.069C121.149 131.134 121.159 131.173 121.137 131.187L120.256 131.732C120.077 131.832 119.843 131.975 119.553 132.162C119.262 132.349 119.024 132.51 118.837 132.646C118.64 132.788 118.509 132.88 118.445 132.921C118.359 132.977 118.28 132.997 118.21 132.981C118.128 132.973 118.017 132.93 117.877 132.853C117.624 132.742 117.381 132.648 117.148 132.569L107.467 129.305L111.083 135.014C111.404 135.538 111.795 135.865 112.257 135.993C112.709 136.129 113.166 136.048 113.628 135.75C113.671 135.722 113.713 135.741 113.755 135.805C113.796 135.87 113.795 135.916 113.752 135.944L113.113 136.333C112.669 136.588 112.302 136.809 112.012 136.996C111.786 137.142 111.476 137.357 111.081 137.641L110.302 138.166Z" fill="#DCCA87"/>
<path d="M72.2344 137.048C72.2089 137.073 72.1769 137.086 72.1386 137.086C72.1003 137.086 72.0619 137.073 72.0236 137.048C71.9853 137.035 71.9725 137.022 71.9853 137.009C72.113 136.177 72.1769 135.267 72.1769 134.281C72.1769 134.179 72.1961 134.102 72.2344 134.051C72.2728 134.012 72.3494 133.993 72.4644 133.993H81.2049C81.256 133.993 81.2815 134.032 81.2815 134.108C81.2815 134.185 81.2624 134.224 81.224 134.224C80.8407 134.224 80.5659 134.256 80.3998 134.32C80.2209 134.384 80.1059 134.505 80.0548 134.685C79.9909 134.864 79.959 135.152 79.959 135.549V144.444C79.959 144.828 79.9909 145.11 80.0548 145.289C80.1187 145.469 80.2401 145.59 80.419 145.654C80.5979 145.731 80.8662 145.769 81.224 145.769C81.2624 145.769 81.2879 145.808 81.3007 145.885C81.3007 145.962 81.2879 146 81.2624 146H73.0011C72.8989 146 72.8478 145.942 72.8478 145.827L72.8095 143.291C72.8095 143.253 72.8478 143.234 72.9245 143.234C72.9884 143.234 73.0267 143.246 73.0395 143.272C73.2567 143.989 73.6528 144.553 74.2279 144.963C74.7901 145.385 75.461 145.597 76.2405 145.597H76.6046C77.0008 145.597 77.2883 145.565 77.4672 145.501C77.6333 145.449 77.7419 145.347 77.793 145.193C77.8441 145.039 77.8761 144.783 77.8889 144.425V140.506H75.4929C74.8412 140.506 74.362 140.621 74.0554 140.851C73.7487 141.082 73.5953 141.453 73.5953 141.966C73.5953 142.017 73.5506 142.043 73.4612 142.043C73.3717 142.043 73.327 142.011 73.327 141.946L73.3462 140.89C73.3589 140.736 73.3653 140.518 73.3653 140.237C73.3653 139.827 73.3589 139.52 73.3462 139.315L73.327 138.277C73.327 138.213 73.3653 138.181 73.442 138.181C73.4803 138.181 73.5187 138.188 73.557 138.2C73.5826 138.226 73.5953 138.252 73.5953 138.277C73.5953 138.828 73.7678 139.244 74.1129 139.526C74.4451 139.82 74.9179 139.968 75.5313 139.968H77.8889V135.626C77.8889 135.114 77.8122 134.781 77.6589 134.627C77.4927 134.473 77.1541 134.397 76.643 134.397H76.1063C75.2757 134.397 74.5154 134.634 73.8253 135.107C73.1353 135.594 72.605 136.241 72.2344 137.048Z" fill="#DCCA87"/>
<path d="M49.7496 141.133C49.6883 141.115 49.6685 141.069 49.6901 140.995C49.7117 140.921 49.7531 140.894 49.8144 140.912C50.2681 141.045 50.7044 141.033 51.1233 140.876C51.5299 140.716 51.9974 140.279 52.5256 139.567L58.747 131.287C58.8018 131.236 58.9027 131.233 59.0499 131.276C59.1112 131.294 59.1689 131.324 59.223 131.367C59.2807 131.397 59.3121 131.427 59.3171 131.455L60.9751 142.775C61.0517 143.331 61.1673 143.732 61.3217 143.978C61.4726 144.236 61.7196 144.415 62.0629 144.516C62.0997 144.527 62.1073 144.569 62.0857 144.643C62.0641 144.717 62.041 144.75 62.0165 144.743L61.0472 144.438C60.613 144.283 60.2917 144.175 60.0833 144.114C59.6174 143.977 59.0865 143.834 58.4908 143.685L57.5843 143.439C57.523 143.421 57.5031 143.375 57.5247 143.301C57.5463 143.227 57.5878 143.199 57.6491 143.217C58.3357 143.419 58.7348 143.33 58.8464 142.949C58.886 142.814 58.8909 142.615 58.8612 142.353L57.634 133.722L53.1531 139.812C52.9758 140.053 52.8584 140.272 52.8008 140.469C52.6892 140.85 52.7438 141.186 52.9646 141.478C53.1818 141.783 53.5233 142.003 53.9892 142.14C54.0383 142.155 54.052 142.199 54.0304 142.273C54.0088 142.346 53.9735 142.376 53.9244 142.361L52.9919 142.067C52.4596 141.884 51.9728 141.727 51.5314 141.597C51.2862 141.525 50.9761 141.447 50.601 141.363L49.7496 141.133Z" fill="#DCCA87"/>
<path d="M38.4171 124.434C38.3818 124.441 38.348 124.435 38.3158 124.414C38.2835 124.393 38.2582 124.362 38.2398 124.319C38.2144 124.288 38.2106 124.27 38.2282 124.266C38.7848 123.635 39.329 122.905 39.861 122.075C39.9163 121.989 39.9738 121.935 40.0337 121.912C40.0867 121.901 40.1616 121.926 40.2583 121.989L47.6112 126.725C47.6542 126.752 47.655 126.799 47.6135 126.863C47.5721 126.928 47.5352 126.95 47.503 126.929C47.1805 126.721 46.9321 126.599 46.7578 126.563C46.5728 126.52 46.4104 126.56 46.2707 126.683C46.1202 126.799 45.9379 127.025 45.7237 127.359L40.9257 134.841C40.7185 135.165 40.5934 135.419 40.5504 135.604C40.5074 135.79 40.5439 135.958 40.6599 136.109C40.7689 136.27 40.974 136.448 41.275 136.642C41.3072 136.663 41.308 136.709 41.2773 136.78C41.2358 136.845 41.2043 136.87 41.1828 136.857L34.2331 132.38C34.1471 132.325 34.1352 132.249 34.1973 132.152L35.533 129.998C35.5537 129.965 35.5963 129.97 35.6608 130.011C35.7146 130.046 35.7399 130.078 35.7368 130.106C35.5327 130.827 35.562 131.516 35.8246 132.172C36.0697 132.832 36.52 133.374 37.1758 133.796L37.4821 133.993C37.8154 134.208 38.0745 134.337 38.2596 134.38C38.427 134.427 38.5736 134.4 38.6995 134.298C38.8254 134.196 38.9904 133.998 39.1946 133.703L41.3086 130.407L39.293 129.108C38.7448 128.755 38.2795 128.592 37.8972 128.62C37.5148 128.648 37.1855 128.877 36.9091 129.308C36.8815 129.351 36.83 129.349 36.7548 129.3C36.6795 129.252 36.6592 129.201 36.6937 129.147L37.2798 128.268C37.3735 128.146 37.4963 127.966 37.6483 127.729C37.8693 127.384 38.0298 127.122 38.1296 126.943L38.673 126.06C38.7076 126.006 38.7571 126 38.8216 126.041C38.8538 126.062 38.8826 126.088 38.908 126.12C38.9157 126.155 38.9126 126.184 38.8988 126.205C38.6017 126.669 38.5223 127.112 38.6606 127.536C38.7812 127.964 39.0995 128.344 39.6154 128.676L41.5988 129.954L43.9408 126.302C44.2171 125.871 44.3322 125.549 44.2861 125.337C44.2293 125.117 43.9859 124.869 43.5559 124.592L43.1044 124.301C42.4057 123.851 41.6382 123.639 40.8021 123.663C39.9591 123.699 39.1641 123.956 38.4171 124.434Z" fill="#DCCA87"/>
<path d="M26.1151 107.906C26.09 107.877 26.1064 107.837 26.1643 107.787C26.2139 107.727 26.2554 107.716 26.2889 107.755L28.3474 110.136C28.5483 110.368 28.5134 111.11 28.2429 112.362C27.9544 113.612 27.3794 115.323 26.5178 117.495C26.8197 117.707 27.1129 117.978 27.3974 118.307C27.4393 118.356 27.484 118.427 27.5317 118.521L30.9648 115.539C31.2532 115.306 31.449 115.102 31.552 114.928C31.637 114.752 31.6499 114.572 31.5906 114.386C31.5134 114.199 31.3493 113.96 31.0982 113.67C31.0648 113.631 31.077 113.586 31.1349 113.536C31.1845 113.476 31.226 113.465 31.2595 113.504C31.544 113.833 31.7568 114.089 31.8977 114.272L32.8121 115.359L33.768 116.435C33.945 116.62 34.1758 116.877 34.4603 117.206C34.4938 117.245 34.4857 117.294 34.4361 117.354C34.3782 117.405 34.3325 117.411 34.299 117.372C34.0229 117.052 33.7937 116.836 33.6115 116.723C33.4197 116.619 33.2353 116.601 33.0582 116.67C32.8632 116.738 32.6214 116.888 32.333 117.122L25.626 122.947C25.3363 123.198 25.1489 123.412 25.064 123.587C24.9706 123.753 24.9625 123.93 25.0398 124.117C25.1073 124.312 25.2708 124.56 25.5302 124.86C25.5637 124.899 25.5515 124.943 25.4935 124.994C25.4356 125.044 25.3899 125.05 25.3564 125.011L24.7056 124.229C24.3568 123.786 24.0652 123.43 23.8309 123.159C23.5463 122.829 23.2174 122.488 22.8441 122.134C22.557 121.842 22.3716 121.647 22.2879 121.55C21.4427 120.572 20.9703 119.703 20.8706 118.942C20.7625 118.172 20.9933 117.539 21.5631 117.045C21.9784 116.684 22.5005 116.476 23.1295 116.421C23.7501 116.357 24.3874 116.439 25.0414 116.667C25.6345 114.83 26.0624 113.34 26.3252 112.197C26.5699 111.052 26.6801 110.143 26.6557 109.47C26.6133 108.795 26.433 108.273 26.1151 107.906ZM27.126 118.873C27.0546 118.732 26.9478 118.579 26.8055 118.414C26.2532 117.776 25.7241 117.447 25.2181 117.429C24.7037 117.401 24.1182 117.673 23.4615 118.243C22.7758 118.838 22.3908 119.41 22.3064 119.958C22.204 120.504 22.3201 120.971 22.6549 121.358C22.8808 121.62 23.0549 121.782 23.1772 121.845C23.2899 121.917 23.4257 121.917 23.5847 121.847C23.7257 121.775 23.9598 121.606 24.2868 121.339L27.126 118.873Z" fill="#DCCA87"/>
<path d="M8.22094 98.2787C8.19439 98.2204 8.21599 98.1753 8.28574 98.1434C8.35548 98.1115 8.40362 98.1247 8.43016 98.1829C8.61595 98.5907 8.9507 98.9091 9.4344 99.1383C9.90118 99.3611 10.5423 99.5041 11.3578 99.5673L15.4668 99.7985L19.5292 97.939C19.8895 97.7741 20.1378 97.6253 20.274 97.4925C20.4049 97.3481 20.4569 97.1695 20.4301 96.9565C20.4033 96.7435 20.2943 96.4273 20.1032 96.0079C20.082 95.9613 20.1062 95.922 20.176 95.8901C20.2457 95.8581 20.2912 95.8655 20.3124 95.9121C20.4982 96.3198 20.6358 96.637 20.725 96.8637L21.3366 98.2522L22.0149 99.6946C22.1327 99.9223 22.2818 100.234 22.4623 100.63C22.4836 100.677 22.4593 100.716 22.3896 100.748C22.3198 100.78 22.2743 100.773 22.2531 100.726C22.062 100.307 21.8923 100.011 21.7439 99.8398C21.5839 99.6737 21.4066 99.5929 21.2121 99.5975C21.0122 99.5904 20.7405 99.6725 20.3971 99.8438L16.5867 101.609L13.6334 106.319C13.3307 106.795 13.139 107.207 13.0582 107.554C12.972 107.889 12.9874 108.184 13.1041 108.441C13.1254 108.487 13.1011 108.527 13.0314 108.558C12.9669 108.602 12.9268 108.606 12.9108 108.571L12.5142 107.655C12.3358 107.201 12.1987 106.87 12.1032 106.66C11.9705 106.369 11.7598 105.937 11.4711 105.366L11.0476 104.482C11.0317 104.447 11.047 104.419 11.0935 104.398C11.1283 104.382 11.1685 104.378 11.214 104.385C11.2426 104.386 11.2622 104.398 11.2728 104.421C11.4108 104.724 11.5349 104.935 11.6451 105.054C11.75 105.16 11.8547 105.19 11.9593 105.142C12.0639 105.094 12.1711 104.975 12.2807 104.784L15.0965 100.327L11.1573 100.145C10.8771 100.146 10.644 100.19 10.458 100.275C10.1907 100.397 10.0181 100.589 9.94029 100.85C9.85719 101.099 9.8926 101.392 10.0465 101.73C10.0678 101.777 10.0435 101.816 9.97378 101.848C9.90404 101.88 9.86121 101.879 9.84528 101.844L9.43274 100.892C9.19057 100.299 8.99783 99.845 8.8545 99.5304C8.76426 99.3324 8.64913 99.1105 8.5091 98.8648L8.22094 98.2787Z" fill="#DCCA87"/>
<path d="M10.0851 62.1063C10.3662 61.047 10.844 60.236 11.5186 59.6733C12.1805 59.1088 12.9415 58.8885 13.8016 59.0125C14.4593 59.1073 15.0256 59.3894 15.5004 59.8589C15.9753 60.3285 16.3217 60.9283 16.5397 61.6584C16.7451 62.3867 16.7868 63.1756 16.665 64.0249C16.6141 64.3799 16.5369 64.7828 16.4335 65.2337C16.3954 65.4094 16.3509 65.6294 16.3001 65.8938C16.251 66.1455 16.2038 66.4298 16.1583 66.7467L15.9809 68.1186C15.959 68.3613 15.9171 68.6981 15.8553 69.1291C15.8517 69.1545 15.8119 69.1617 15.736 69.1508C15.6601 69.1398 15.624 69.1217 15.6276 69.0963C15.6804 68.7287 15.6879 68.4516 15.6501 68.265C15.6015 68.0639 15.4941 67.9126 15.3279 67.811C15.1617 67.7094 14.8889 67.6313 14.5095 67.5766L5.72524 66.3108C5.35844 66.2579 5.08104 66.2567 4.89306 66.3073C4.69424 66.3433 4.54957 66.4519 4.45905 66.6329C4.3577 66.7995 4.28066 67.0665 4.22792 67.4342C4.22428 67.4595 4.18452 67.4667 4.10863 67.4558C4.03274 67.4449 3.99661 67.4267 4.00025 67.4014L4.1638 66.3963C4.26911 65.8421 4.34632 65.3939 4.39542 65.0517C4.44634 64.6967 4.4801 64.3263 4.49671 63.9406C4.50225 63.812 4.51688 63.62 4.5406 63.3646C4.56433 63.1093 4.58983 62.8865 4.61711 62.6964C4.78805 61.5047 5.12859 60.6157 5.63873 60.0293C6.15069 59.4303 6.80509 59.1882 7.60193 59.303C8.20905 59.3905 8.73016 59.6726 9.16525 60.1494C9.60034 60.6261 9.90696 61.2784 10.0851 62.1063ZM4.95564 63.0363C4.9029 63.4039 4.95507 63.6702 5.11214 63.8352C5.26921 64.0001 5.58806 64.1172 6.0687 64.1865L9.67347 64.706L9.80428 63.9291C9.90248 63.2445 9.73131 62.6829 9.29076 62.2442C8.83939 61.7909 8.23425 61.5096 7.47535 61.4003C6.7544 61.2964 6.17965 61.3882 5.7511 61.6758C5.31172 61.9489 5.04656 62.4024 4.95564 63.0363ZM16.2012 64.288C16.3303 63.388 16.2036 62.6969 15.8209 62.2147C15.4382 61.7326 14.8105 61.4287 13.9378 61.3029C12.9638 61.1625 12.1577 61.2922 11.5195 61.6919C10.8812 62.0916 10.4902 62.7922 10.3465 63.7937C10.2938 64.1613 10.2592 64.4928 10.2426 64.788L14.815 65.4469C15.2577 65.5107 15.5794 65.4729 15.7801 65.3336C15.9808 65.1944 16.1212 64.8458 16.2012 64.288Z" fill="#DCCA87"/>
<path d="M20.6115 49.4625C20.6009 49.4858 20.5607 49.4815 20.491 49.4496C20.4213 49.4177 20.3917 49.3901 20.4023 49.3668C20.5669 49.0056 20.6546 48.736 20.6655 48.558C20.6817 48.3683 20.6217 48.207 20.4855 48.0743C20.3493 47.9416 20.1011 47.7927 19.7407 47.6278L11.6681 43.9328C11.331 43.7785 11.0652 43.6991 10.8706 43.6945C10.6697 43.673 10.5031 43.7304 10.3706 43.8669C10.2266 43.9981 10.0776 44.2326 9.92363 44.5705C9.91301 44.5938 9.87018 44.5953 9.79513 44.575C9.72538 44.5431 9.69848 44.5097 9.7144 44.4747L10.13 43.6089C10.3868 43.107 10.5868 42.6987 10.7302 42.3842C10.8894 42.0347 11.0795 41.5867 11.3004 41.0401L11.6732 40.1759C11.6838 40.1526 11.724 40.1569 11.7937 40.1888C11.8635 40.2207 11.893 40.2483 11.8824 40.2716C11.7231 40.6211 11.6412 40.8934 11.6367 41.0884C11.6321 41.2834 11.6979 41.4473 11.8341 41.5801C11.9756 41.7011 12.2238 41.85 12.5789 42.0266L20.6166 45.7056C20.9653 45.8652 21.2343 45.9531 21.4236 45.9693C21.6181 45.9739 21.7875 45.9106 21.9315 45.7795C22.064 45.643 22.2071 45.4058 22.3611 45.0679C22.3717 45.0446 22.4119 45.0489 22.4816 45.0809C22.5514 45.1128 22.5809 45.1404 22.5703 45.1637C22.4058 45.5249 22.2672 45.8134 22.1548 46.0295L21.5561 47.2972L21.0082 48.5459C20.9189 48.7725 20.7867 49.0781 20.6115 49.4625Z" fill="#DCCA87"/>
<path d="M28.9744 35.1782C28.9493 35.2072 28.9078 35.1966 28.8498 35.1463C28.7919 35.0959 28.7713 35.0611 28.788 35.0417C29.1395 34.6352 29.3706 34.319 29.4813 34.0932C29.6003 33.8577 29.6216 33.6473 29.5449 33.4622C29.4587 33.2686 29.2707 33.046 28.9809 32.7944L22.274 26.9696C21.9443 26.6664 21.6846 26.5171 21.4947 26.5216C21.2951 26.5178 21.0782 26.6513 20.8438 26.9224L20.6807 27.1111C20.3962 27.4402 20.2221 27.8567 20.1584 28.3606C20.085 28.8562 20.126 29.3662 20.2812 29.8908C20.4267 30.4069 20.6813 30.8653 21.0451 31.266C21.0644 31.2827 21.0532 31.3153 21.0113 31.3637C20.9862 31.3928 20.9563 31.4176 20.9215 31.4383C20.8855 31.4408 20.8668 31.4331 20.8655 31.415C20.5404 31.0479 19.6422 30.1408 18.1711 28.6937C18.1421 28.6686 18.1486 28.6318 18.1904 28.5834C18.2155 28.5544 18.2413 28.5344 18.2676 28.5234C18.3024 28.5027 18.3294 28.5008 18.3488 28.5176C18.5516 28.6937 18.8412 28.564 19.2178 28.1284C19.9246 27.3696 20.7884 26.3997 21.8093 25.2189C22.2696 24.6865 22.7746 24.0829 23.3243 23.4079L24.1884 22.379C24.4646 22.0596 24.6413 21.8064 24.7185 21.6192C24.7957 21.4321 24.7787 21.2563 24.6673 21.0918C24.655 21.0473 24.6747 21.005 24.7262 20.965C24.7764 20.9069 24.8166 20.8995 24.8469 20.9427C25.2467 21.3408 25.7576 21.8353 26.3795 22.4263C26.9918 23.0088 27.4131 23.3917 27.6436 23.575C27.6726 23.6001 27.662 23.6417 27.6118 23.6998C27.5448 23.7772 27.492 23.7992 27.4534 23.7656C27.0575 23.4218 26.611 23.195 26.114 23.0854C25.6254 22.9661 25.1416 22.978 24.6626 23.1213C24.1921 23.2549 23.7978 23.5056 23.4798 23.8734L23.3166 24.0622C23.1492 24.2558 23.0521 24.4171 23.025 24.5461C23.0064 24.6655 23.0466 24.7852 23.1458 24.9052C23.2353 25.0168 23.4062 25.1907 23.6586 25.4268L30.3491 31.2119C30.6485 31.4719 30.8909 31.6315 31.0763 31.6909C31.2701 31.7406 31.4706 31.6944 31.6779 31.5524C31.8852 31.4105 32.1687 31.1314 32.5285 30.7152C32.5536 30.6861 32.5952 30.6968 32.6531 30.7471C32.711 30.7974 32.7275 30.8371 32.7024 30.8661C32.3927 31.2243 32.1452 31.5008 31.9599 31.6956L30.8031 33.0043L29.7381 34.2655C29.5637 34.4868 29.3091 34.791 28.9744 35.1782Z" fill="#DCCA87"/>
<path d="M46.0237 16.7055C46.0314 16.6701 46.0513 16.642 46.0836 16.6212C46.1158 16.6005 46.155 16.5905 46.2011 16.5912C46.2402 16.5812 46.2579 16.5851 46.254 16.6028C46.5956 17.3724 47.0324 18.1719 47.5643 19.0016C47.6196 19.0877 47.6449 19.1628 47.6403 19.2266C47.6288 19.2797 47.5746 19.3374 47.4779 19.3998L40.125 24.1359C40.082 24.1636 40.0398 24.1451 39.9983 24.0805C39.9569 24.0158 39.9523 23.9731 39.9845 23.9523C40.307 23.7446 40.5208 23.5688 40.6261 23.4249C40.742 23.2741 40.7731 23.1094 40.7194 22.9309C40.6764 22.7454 40.5479 22.4857 40.3337 22.1517L35.5357 14.669C35.3285 14.3458 35.1496 14.1261 34.9992 14.0099C34.8487 13.8937 34.6809 13.8571 34.4959 13.9002C34.304 13.9324 34.0575 14.0455 33.7565 14.2394C33.7242 14.2602 33.682 14.2417 33.6298 14.184C33.5884 14.1193 33.5784 14.0801 33.5999 14.0662L40.5497 9.58978C40.6357 9.53439 40.7097 9.55517 40.7719 9.65214L42.1721 11.7647C42.1928 11.797 42.1709 11.8339 42.1064 11.8755C42.0526 11.9101 42.0135 11.9201 41.9889 11.9055C41.4193 11.4198 40.7821 11.1604 40.0773 11.1272C39.3763 11.0763 38.6979 11.2621 38.0422 11.6844L37.7358 11.8818C37.4026 12.0964 37.178 12.2792 37.062 12.43C36.9499 12.5631 36.9138 12.7081 36.9537 12.8651C36.9936 13.0221 37.1049 13.2549 37.2876 13.5635L39.4016 16.8604L41.4172 15.5621C41.9654 15.209 42.3064 14.8524 42.44 14.4922C42.5737 14.1321 42.5023 13.7366 42.226 13.3056C42.1983 13.2625 42.2221 13.2167 42.2974 13.1683C42.3726 13.1198 42.4275 13.1225 42.4621 13.1764L43.0159 14.0756C43.0881 14.2118 43.2001 14.3985 43.3521 14.6355C43.5732 14.9803 43.7444 15.2354 43.8657 15.4009L44.4414 16.2632C44.4759 16.317 44.4609 16.3648 44.3964 16.4063C44.3642 16.4271 44.3285 16.4425 44.2893 16.4525C44.254 16.4448 44.2294 16.4301 44.2156 16.4086C43.9186 15.9453 43.5489 15.6886 43.1067 15.6385C42.6683 15.5708 42.1911 15.703 41.6751 16.0354L39.6917 17.3129L42.0337 20.9654C42.3101 21.3963 42.5542 21.6349 42.7661 21.6811C42.9887 21.7204 43.3151 21.6015 43.7451 21.3246L44.1966 21.0338C44.8953 20.5837 45.4071 19.9724 45.732 19.1998C46.0499 18.4165 46.1472 17.5851 46.0237 16.7055Z" fill="#DCCA87"/>
</g>
<defs>
<filter id="filter0_d_562_26" x="0" y="0" width="154" height="154" filterUnits="userSpaceOnUse" color-interpolation-filters="sRGB">
<feFlood flood-opacity="0" result="BackgroundImageFix"/>
<feColorMatrix in="SourceAlpha" type="matrix" values="0 0 0 0 0 0 0 0 0 0 0 0 0 0 0 0 0 0 127 0" result="hardAlpha"/>
<feOffset dy="4"/>
<feGaussianBlur stdDeviation="2"/>
<feComposite in2="hardAlpha" operator="out"/>
<feColorMatrix type="matrix" values="0 0 0 0 0 0 0 0 0 0 0 0 0 0 0 0 0 0 0.25 0"/>
<feBlend mode="normal" in2="BackgroundImageFix" result="effect1_dropShadow_562_26"/>
<feBlend mode="normal" in="SourceGraphic" in2="effect1_dropShadow_562_26" result="shape"/>
</filter>
</defs>
</svg>
